<svg xmlns="http://www.w3.org/2000/svg" width="200" height="56" viewBox="0 0 200 56">
  <defs>
    <linearGradient id="bg" x1="0" y1="0" x2="0" y2="1">
      <stop offset="0%" stop-color="#3a3a3c"/>
      <stop offset="100%" stop-color="#1c1c1e"/>
    </linearGradient>
  </defs>
  <rect width="200" height="56" rx="12" fill="url(#bg)"/>
  <g fill="white" transform="translate(24, 14)">
    <path d="M18.7 16.2c0 3.2 2.8 4.3 2.8 4.3s-1.5 4.4-3.7 4.4c-1 0-1.7-.7-2.8-.7s-1.8.7-2.8.7c-2.4 0-5.3-4.5-5.3-8.1 0-3.5 2.2-5.3 4.2-5.3 1.1 0 2 .7 2.7.7.6 0 1.7-.8 2.9-.7.8 0 2.7.3 3.6 2.5-2.1 1.1-1.6 2.2-1.6 2.2zM15.5 9.5c.9-1.1 1.1-2.5 1.1-2.5s-1.4.1-2.6 1.3c-1.1 1.1-1.4 2.4-1.4 2.4s1.5.1 2.9-1.2z" transform="scale(0.9)"/>
  </g>
  <text x="112" y="34" font-family="system-ui,-apple-system,sans-serif" font-size="17" font-weight="600" fill="white" text-anchor="middle">macOS</text>
</svg>
